<?xml version="1.0" standalone="yes"?><svg xmlns="http://www.w3.org/2000/svg" xmlns:svgjs="http://svgjs.com/svgjs" id="SvgjsSvg1235" width="50%" height="50%" version="1.1" xlink="http://www.w3.org/1999/xlink" preserveAspectRatio="xMidYMid meet" viewBox="0 0 244.56201171875 147" overflow="visible" style="zoom: 1;"><defs id="SvgjsDefs1236"></defs><g id="SvgjsG1237" transform="scale(0.9910122776817312)" opacity="1"><g id="SvgjsG1238" class="aHb7mx1pBH" transform="translate(82.28719141753105, -4.112954300507771) scale(0.8225908601015542)" light-content="false" non-strokable="false" fill="#fc2803"><path d="M81.588,69.219 l-5.546,8.514 L49.901,5 L30.566,58.797 l-6.08,-15.251 L4.967,95 h90.001 z"></path></g><g id="SvgjsG1239" transform="translate(123.38999938964844, 135.8531771039641) scale(1)" class="text" fill="#FFFFFF" light-content="false"><path d="M-123.39,-6.96 L-123.39,0 L-99.69,0 C-96.29,0 -93.55,-0.98 -91.47,-2.94 C-89.39,-4.9 -88.35,-7.6 -88.35,-11.04 C-88.35,-13.24 -88.85,-15.01 -89.85,-16.35 C-90.85,-17.69 -92.33,-18.8 -94.29,-19.68 C-92.61,-20.6 -91.29,-21.81 -90.33,-23.31 C-89.37,-24.81 -88.89,-26.4 -88.89,-28.08 C-88.89,-31.6 -89.89,-34.27 -91.89,-36.09 C-93.89,-37.91 -96.61,-38.82 -100.05,-38.82 L-123.39,-38.82 L-123.39,-31.8 L-122.13,-31.8 C-120.53,-31.8 -119.73,-31.06 -119.73,-29.58 L-119.73,-9.36 C-119.73,-8.56 -119.92,-7.96 -120.3,-7.56 C-120.68,-7.16 -121.29,-6.96 -122.13,-6.96 M-104.01,-22.98 L-108.63,-22.98 L-108.63,-31.86 L-104.07,-31.86 C-102.79,-31.86 -101.77,-31.46 -101.01,-30.66 C-100.25,-29.86 -99.87,-28.78 -99.87,-27.42 C-99.87,-25.94 -100.28,-24.83 -101.1,-24.09 C-101.92,-23.35 -102.89,-22.98 -104.01,-22.98 M-103.65,-6.96 L-108.63,-6.96 L-108.63,-15.84 L-103.83,-15.84 C-102.59,-15.84 -101.52,-15.52 -100.62,-14.88 C-99.72,-14.24 -99.27,-13.12 -99.27,-11.52 C-99.27,-9.96 -99.68,-8.81 -100.5,-8.07 C-101.32,-7.33 -102.37,-6.96 -103.65,-6.96 Z M-86.55,-7.08 L-86.55,0 L-69.33,0 L-69.33,-7.08 L-69.93,-7.08 C-70.73,-7.08 -71.3,-7.27 -71.64,-7.65 C-71.98,-8.03 -72.15,-8.6 -72.15,-9.36 L-72.15,-17.76 C-72.15,-19.12 -71.86,-20.12 -71.28,-20.76 C-70.7,-21.4 -69.73,-21.72 -68.37,-21.72 L-62.73,-21.72 L-62.73,-28.8 L-66.63,-28.8 C-67.87,-28.8 -69.14,-28.57 -70.44,-28.11 C-71.74,-27.65 -72.73,-26.92 -73.41,-25.92 L-74.07,-28.8 L-86.43,-28.8 L-86.43,-21.72 L-85.71,-21.72 C-84.87,-21.72 -84.28,-21.52 -83.94,-21.12 C-83.6,-20.72 -83.43,-20.16 -83.43,-19.44 L-83.43,-9.36 C-83.43,-7.84 -84.25,-7.08 -85.89,-7.08 Z M-60.96,-1.29 C-59.18,0.17 -56.51,0.9 -52.95,0.9 C-50.31,0.9 -48.19,0.53 -46.59,-0.21 C-44.99,-0.95 -43.43,-2.22 -41.91,-4.02 L-41.01,0 L-32.43,0 L-32.43,-6.72 L-33.15,-6.72 C-34.43,-6.72 -35.07,-7.42 -35.07,-8.82 L-35.07,-19.14 C-35.07,-22.34 -36.19,-24.9 -38.43,-26.82 C-40.67,-28.74 -44.01,-29.7 -48.45,-29.7 C-53.01,-29.7 -57.19,-28.52 -60.99,-26.16 L-60.99,-19.8 L-51.75,-19.8 L-51.75,-21.78 C-50.99,-22.58 -50.09,-22.98 -49.05,-22.98 C-47.21,-22.98 -46.29,-22.1 -46.29,-20.34 L-46.29,-17.16 L-51.57,-16.8 C-55.57,-16.52 -58.58,-15.63 -60.6,-14.13 C-62.62,-12.63 -63.63,-10.38 -63.63,-7.38 C-63.63,-4.78 -62.74,-2.75 -60.96,-1.29 M-46.29,-9.54 C-46.29,-7.06 -47.67,-5.82 -50.43,-5.82 C-51.43,-5.82 -52.2,-6.05 -52.74,-6.51 C-53.28,-6.97 -53.55,-7.6 -53.55,-8.4 C-53.55,-10.12 -52.47,-11.06 -50.31,-11.22 L-46.29,-11.58 Z M-30.03,-20.22 L-22.83,0 L-12.87,0 L-5.73,-20.22 C-5.45,-21.02 -5.06,-21.56 -4.56,-21.84 C-4.06,-22.12 -3.21,-22.26 -2.01,-22.26 L-1.23,-22.26 L-1.23,-28.8 L-13.11,-28.8 L-17.79,-11.94 L-22.53,-28.8 L-34.53,-28.8 L-34.53,-22.26 L-33.75,-22.26 C-32.55,-22.26 -31.7,-22.12 -31.2,-21.84 C-30.7,-21.56 -30.31,-21.02 -30.03,-20.22 Z M0.45,-2.88 C3.37,-0.32 7.45,0.96 12.69,0.96 C15.77,0.96 18.37,0.59 20.49,-0.15 C22.61,-0.89 24.45,-1.98 26.01,-3.42 L26.01,-8.76 L16.83,-8.76 L16.83,-6.36 C15.67,-5.84 14.35,-5.58 12.87,-5.58 C10.75,-5.58 9.27,-6.08 8.43,-7.08 C7.59,-8.08 7.17,-9.78 7.17,-12.18 L27.03,-12.18 L27.03,-15.06 C27.03,-19.5 25.74,-23.05 23.16,-25.71 C20.58,-28.37 16.81,-29.7 11.85,-29.7 C6.77,-29.7 2.87,-28.43 0.15,-25.89 C-2.57,-23.35 -3.93,-19.46 -3.93,-14.22 C-3.93,-9.22 -2.47,-5.44 0.45,-2.88 M15.99,-17.94 L7.17,-17.94 C7.17,-19.58 7.55,-20.85 8.31,-21.75 C9.07,-22.65 10.17,-23.1 11.61,-23.1 C12.97,-23.1 14.04,-22.65 14.82,-21.75 C15.6,-20.85 15.99,-19.58 15.99,-17.94 Z M33,-3 C35.78,-0.4 39.69,0.9 44.73,0.9 C49.73,0.9 53.61,-0.4 56.37,-3 C59.13,-5.6 60.51,-9.4 60.51,-14.4 C60.51,-19.44 59.16,-23.25 56.46,-25.83 C53.76,-28.41 49.85,-29.7 44.73,-29.7 C39.57,-29.7 35.63,-28.41 32.91,-25.83 C30.19,-23.25 28.83,-19.44 28.83,-14.4 C28.83,-9.4 30.22,-5.6 33,-3 M48.42,-8.13 C47.72,-6.87 46.49,-6.24 44.73,-6.24 C42.93,-6.24 41.69,-6.86 41.01,-8.1 C40.33,-9.34 39.99,-11.44 39.99,-14.4 C39.99,-17.4 40.33,-19.51 41.01,-20.73 C41.69,-21.95 42.93,-22.56 44.73,-22.56 C46.49,-22.56 47.72,-21.94 48.42,-20.7 C49.12,-19.46 49.47,-17.36 49.47,-14.4 C49.47,-11.48 49.12,-9.39 48.42,-8.13 Z M61.71,5.4 L61.71,12.48 L77.67,12.48 L77.67,5.4 L77.01,5.4 C75.37,5.4 74.55,4.64 74.55,3.12 L74.55,-1.56 C75.87,-0.64 77.12,0.01 78.3,0.39 C79.48,0.77 81.01,0.96 82.89,0.96 C87.17,0.96 90.46,-0.41 92.76,-3.15 C95.06,-5.89 96.21,-9.78 96.21,-14.82 C96.21,-19.58 94.98,-23.25 92.52,-25.83 C90.06,-28.41 86.79,-29.7 82.71,-29.7 C80.43,-29.7 78.46,-29.29 76.8,-28.47 C75.14,-27.65 73.71,-26.46 72.51,-24.9 L71.97,-28.8 L61.71,-28.8 L61.71,-21.6 L62.31,-21.6 C63.15,-21.6 63.78,-21.4 64.2,-21 C64.62,-20.6 64.83,-20.04 64.83,-19.32 L64.83,3.12 C64.83,3.84 64.62,4.4 64.2,4.8 C63.78,5.2 63.15,5.4 62.31,5.4 M84.12,-7.74 C83.42,-6.3 82.09,-5.58 80.13,-5.58 C78.49,-5.58 77.26,-6.2 76.44,-7.44 C75.62,-8.68 75.21,-10.46 75.21,-12.78 L75.21,-16.08 C75.21,-18.2 75.63,-19.96 76.47,-21.36 C77.31,-22.76 78.53,-23.46 80.13,-23.46 C82.09,-23.46 83.42,-22.79 84.12,-21.45 C84.82,-20.11 85.17,-17.86 85.17,-14.7 C85.17,-11.5 84.82,-9.18 84.12,-7.74 Z M101.97,-0.03 C104.17,0.59 106.73,0.9 109.65,0.9 C118.81,0.9 123.39,-1.92 123.39,-7.56 C123.39,-9.88 122.73,-11.69 121.41,-12.99 C120.09,-14.29 117.91,-15.52 114.87,-16.68 C113.67,-17.12 112.51,-17.57 111.39,-18.03 C110.27,-18.49 109.4,-18.96 108.78,-19.44 C108.16,-19.92 107.85,-20.46 107.85,-21.06 C107.85,-22.34 108.69,-22.98 110.37,-22.98 C111.41,-22.98 112.35,-22.68 113.19,-22.08 L113.19,-20.64 L122.85,-20.64 L122.85,-25.62 C121.09,-26.98 119.03,-28 116.67,-28.68 C114.31,-29.36 111.79,-29.7 109.11,-29.7 C105.11,-29.7 101.95,-28.97 99.63,-27.51 C97.31,-26.05 96.15,-23.9 96.15,-21.06 C96.15,-19.5 96.51,-18.19 97.23,-17.13 C97.95,-16.07 98.87,-15.19 99.99,-14.49 C101.11,-13.79 102.65,-12.98 104.61,-12.06 C106.29,-11.3 107.49,-10.78 108.21,-10.5 C109.65,-9.9 110.59,-9.43 111.03,-9.09 C111.47,-8.75 111.69,-8.24 111.69,-7.56 C111.69,-6.36 110.75,-5.76 108.87,-5.76 C107.67,-5.76 106.67,-6.04 105.87,-6.6 L105.87,-8.46 L95.91,-8.46 L95.91,-3.12 C97.75,-1.68 99.77,-0.65 101.97,-0.03 Z"></path></g></g></svg>